# xmcd
#
# Track frame offsets: 
#        150
#        20054
#        41019
#        59970
#        76990
#        92877
#        108889
#        126443
#        146906
#        166044
#        178058
#        193796
#        211038
#        232103
#        248134
#        265688
#
# Disc length: 3795 seconds
#
# Revision: 0
# Processed by: cddbd v1.5.2PL0 Copyright (c) Steve Scherf et al.
# Submitted via: ExactAudioCopy v1.0b4
#
DISCID=ea0ed110
DTITLE=Little Axe - London Blues
DYEAR=2017
DGENRE=Blues
TTITLE0=Be Thankful (amongst the grateful)
TTITLE1=London Blues
TTITLE2=Snake Oil
TTITLE3=Deep River
TTITLE4=Factory Girl
TTITLE5=Next Week Thursday
TTITLE6=Sparrow's Nest
TTITLE7=House Of Bones
TTITLE8=When I Rise
TTITLE9=Great Heroes
TTITLE10=Factory Girl (Dub)
TTITLE11=Deep River (Dub)
TTITLE12=London Blues (Dub)
TTITLE13=Next Week Thursday (Dub)
TTITLE14=Sparrow's Nest (Dub)
TTITLE15=When I Rise (Dub)
EXTD=
EXTT0=
EXTT1=
EXTT2=
EXTT3=
EXTT4=
EXTT5=
EXTT6=
EXTT7=
EXTT8=
EXTT9=
EXTT10=
EXTT11=
EXTT12=
EXTT13=
EXTT14=
EXTT15=
PLAYORDER=
